<?xml version="1.0" encoding="UTF-8" standalone="no"?>
<svg
   xmlns:dc="http://purl.org/dc/elements/1.1/"
   xmlns:cc="http://creativecommons.org/ns#"
   xmlns:rdf="http://www.w3.org/1999/02/22-rdf-syntax-ns#"
   xmlns:svg="http://www.w3.org/2000/svg"
   xmlns="http://www.w3.org/2000/svg"
   version="1.1"
   id="svg2"
   viewBox="0 0 34.835957 124.56234"
   height="124.56235"
   width="34.835957">
  <defs
     id="defs4" />
  <metadata
     id="metadata7">
    <rdf:RDF>
      <cc:Work
         rdf:about="">
        <dc:format>image/svg+xml</dc:format>
        <dc:type
           rdf:resource="http://purl.org/dc/dcmitype/StillImage" />
        <dc:title></dc:title>
      </cc:Work>
    </rdf:RDF>
  </metadata>
  <g
     transform="translate(-362.65905,-433.20773)"
     id="layer1">
    <path
       id="path4539"
       d="m 378.96511,433.23249 c -3.9921,0.2837 -7.60879,2.97784 -9.87189,6.80162 -6.8549,11.50555 -6.5993,39.28551 -5.6396,53.00745 0.9598,13.72195 -2.7094,37.98115 0.6631,44.96218 3.3727,6.98104 11.43149,4.05379 11.08869,14.14192 -0.3428,10.08814 11.5602,4.9451 10.6241,-2.4671 -0.9362,-7.4122 8.3359,-7.58227 10.7905,-13.16825 2.4547,-5.58598 -1.0108,-36.20181 -1.2392,-53.34792 -0.2282,-17.14612 1.3678,-27.89005 -1.2465,-36.34974 -4.28599,-10.32444 -10.0371,-13.9449 -15.1697,-13.58014 z m 1.3057,16.63145 c 4.5691,-0.25273 4.231,8.31673 -0.072,10.65303 -5.0487,2.74096 -7.1966,-10.64524 -0.9068,-10.48125 0.3486,-0.0997 0.6746,-0.15494 0.9792,-0.17178 z m -2.4043,16.89147 c 8.1924,-0.3963 12.5468,10.43269 4.7287,14.29007 -8.0704,3.98179 -14.23679,-13.03979 -5.5334,-14.21601 0.272,-0.0368 0.5403,-0.0613 0.8047,-0.0741 z m 1.1999,30.06062 c 5.6727,-0.0167 7.7401,10.39589 8.0184,16.33849 0.3338,7.135 -1.0472,20.43589 -8.1627,19.81194 -6.86379,-0.60192 -4.5359,-13.30092 -4.4295,-20.19024 0.085,-5.4738 -1.4218,-15.27688 4.0141,-15.92567 0.1906,-0.0227 0.3767,-0.034 0.5597,-0.0345 z"
       style="opacity:1;fill:#000000;fill-opacity:1;stroke:none;stroke-width:1;stroke-linecap:butt;stroke-linejoin:round;stroke-miterlimit:4;stroke-dasharray:none;stroke-dashoffset:0;stroke-opacity:1" />
  </g>
</svg>
